<svg version="1.1" viewBox="0 0 216.74 224.35" xmlns="http://www.w3.org/2000/svg"><g transform="translate(-44.42 -21.87)"><path d="m50.062 244.26c-7.415-4.3545-7.5619-29.422-0.19885-33.937 4.2617-2.6133 202.64-2.1325 206.28 0.49996 5.6377 4.0763 6.5078 25.096 1.2948 31.276-3.2228 3.8206-201.04 5.8824-207.37 2.1614zm26.168-45.486c-3.4464-1.184-7.5725-6.8128-8.7298-11.909-1.8606-8.1937-0.73317-83.868 1.3109-87.995 5.9296-11.97 21.547-11.368 26.958 1.038 2.4941 5.7194 1.4249 88.462-1.1995 92.825-3.5967 5.9801-11.213 8.489-18.339 6.041zm70.85-2.9957c-3.4336-1.1802-8.5084-7.8865-9.1581-12.102-1.5314-9.9375-0.0282-85.631 1.7572-88.488 6.7564-10.808 19.23-10.808 25.987 0 1.7855 2.8563 3.2886 78.55 1.7572 88.488-1.4481 9.3968-11.25 15.228-20.343 12.102zm73.723 0.0997c-3.6276-1.2967-7.0918-4.6876-8.5746-8.393-2.2967-5.7394-2.0408-86.136 0.29145-91.558 5.9441-13.817 24.905-10.746 27.891 4.5165 1.1246 5.7503 1.0133 79.003-0.12749 83.876-2.1389 9.136-11.206 14.516-19.48 11.559zm-172.49-122.04c-4.0707-1.9529-4.5746-9.5294-0.82304-12.377 1.9239-1.4601 103.22-39.595 105.17-39.595 1.0016 0 17.693 6.1585 80.125 29.564 28.774 10.787 31.463 12.897 26.22 20.575-1.7043 2.496-205.61 4.2698-210.69 1.8328z" fill="#241c1c" stroke-width=".91831"/></g></svg>
